<?xml version="1.0" encoding="utf-8"?>
<!-- Generator: Adobe Illustrator 28.3.0, SVG Export Plug-In . SVG Version: 6.00 Build 0)  -->
<svg version="1.1" id="Слой_1" xmlns="http://www.w3.org/2000/svg" xmlns:xlink="http://www.w3.org/1999/xlink" x="0px" y="0px"
	 viewBox="0 0 256 256" style="enable-background:new 0 0 256 256;" xml:space="preserve">
<style type="text/css">
	.st0{clip-path:url(#SVGID_00000057826883870555273900000011184917858443464881_);}
	.st1{fill:#FFDE50;}
	.st2{fill:#F0CD00;}
	.st3{fill:#FFEA94;}
	.st4{fill:#FAA300;}
	.st5{fill:#F68E00;}
	.st6{fill:#FFBD00;}
</style>
<g>
	<defs>
		<rect id="SVGID_1_" width="256" height="256"/>
	</defs>
	<clipPath id="SVGID_00000168800972824959135260000017609032979987159452_">
		<use xlink:href="#SVGID_1_"  style="overflow:visible;"/>
	</clipPath>
	<g style="clip-path:url(#SVGID_00000168800972824959135260000017609032979987159452_);">
		<g>
			<ellipse class="st1" cx="128" cy="128.02" rx="128" ry="128.02"/>
		</g>
		<g>
			<path class="st2" d="M9,128.02C9,58.82,63.89,2.46,132.5,0.09C131.01,0.04,129.51,0,128,0C57.31,0,0,57.32,0,128.02
				s57.31,128.02,128,128.02c1.51,0,3.01-0.04,4.5-0.09C63.89,253.59,9,197.22,9,128.02z"/>
		</g>
		<path class="st3" d="M33.56,214.44L214.42,33.58c-6.72-6.15-14.09-11.59-22.01-16.21L17.36,192.42
			C21.98,200.34,27.41,207.72,33.56,214.44z"/>
		<path class="st3" d="M81.34,247.27L247.23,81.38c-4.62-11.8-10.94-22.75-18.65-32.54L48.81,228.61
			C58.6,236.33,69.54,242.65,81.34,247.27z"/>
		<g>
			<ellipse class="st4" cx="128" cy="128.02" rx="99.17" ry="99.19"/>
		</g>
		<g>
			<path class="st5" d="M128,28.83c-1.71,0-3.4,0.04-5.09,0.13C175.32,31.61,217,74.95,217,128.02s-41.68,96.41-94.09,99.06
				c1.68,0.09,3.38,0.13,5.09,0.13c54.77,0,99.17-44.41,99.17-99.19S182.77,28.83,128,28.83z"/>
		</g>
		<g>
			<path class="st6" d="M57.88,198.17L198.15,57.91C180.2,39.95,155.4,28.83,128,28.83c-54.77,0-99.17,44.41-99.17,99.19
				C28.83,155.42,39.93,180.22,57.88,198.17z"/>
		</g>
		<g>
			<path class="st5" d="M73.09,198.26V57.74h28.87v54.48h13.67l23.1-54.48h31.38l-28.88,67.18l30.03,73.34H139.5l-23.87-59.48
				h-13.67v59.48H73.09z"/>
		</g>
		<g>
			<path class="st3" d="M84.83,198.26V57.74h28.87v54.48h13.67l23.1-54.48h31.38l-28.88,67.18L183,198.26h-31.76l-23.87-59.48H113.7
				v59.48H84.83z"/>
		</g>
	</g>
</g>
</svg>
